<?xml version="1.0" standalone="no"?>
<!DOCTYPE svg PUBLIC "-//W3C//DTD SVG 20010904//EN"
 "http://www.w3.org/TR/2001/REC-SVG-20010904/DTD/svg10.dtd">
<svg version="1.0" xmlns="http://www.w3.org/2000/svg"
 width="1320.000000pt" height="1000.000000pt" viewBox="0 0 1320.000000 1000.000000"
 preserveAspectRatio="xMidYMid meet">

<g transform="translate(0.000000,1000.000000) scale(0.100000,-0.100000)"
fill="#000000" stroke="none">
<path d="M0 5000 l0 -5000 6600 0 6600 0 0 5000 0 5000 -6600 0 -6600 0 0
-5000z m5995 1578 c38 -30 65 -93 65 -155 0 -60 -3 -59 95 -43 133 21 379 30
540 20 137 -9 340 -36 419 -56 22 -5 24 -1 30 43 13 85 26 122 57 158 40 45
71 45 114 2 43 -43 58 -102 53 -197 -7 -107 -54 -190 -109 -190 -30 0 -78 50
-96 99 l-17 48 -86 16 c-123 24 -126 24 -140 -20 -21 -65 -68 -138 -120 -187
-49 -46 -124 -86 -161 -86 -17 0 -19 -8 -19 -70 0 -79 1 -80 71 -54 26 10 77
17 124 18 96 1 153 -23 215 -90 54 -59 105 -161 89 -180 -23 -28 -48 -16 -74
36 -57 113 -129 161 -240 161 -47 0 -81 -7 -127 -26 -35 -15 -75 -32 -90 -38
-49 -20 -58 0 -58 128 l0 113 -34 12 c-76 25 -153 122 -198 250 -12 36 -23 66
-24 68 -2 3 -154 -15 -191 -23 -15 -3 -26 -19 -37 -52 -19 -56 -61 -103 -92
-103 -31 0 -74 37 -95 84 -24 52 -25 175 -4 237 19 53 61 99 91 99 12 0 34
-10 49 -22z m523 -820 c3 -24 -5 -30 -90 -74 -109 -56 -219 -158 -262 -242
-24 -47 -30 -53 -54 -50 -59 7 -26 93 77 202 63 66 107 98 213 156 83 46 112
48 116 8z m-4329 -1025 c16 -71 44 -191 62 -268 17 -77 34 -144 38 -148 4 -4
39 115 77 265 l69 273 84 0 85 0 66 -265 c37 -146 69 -272 72 -280 4 -13 37
112 114 443 l26 107 87 0 88 0 -111 -410 -110 -410 -88 0 -87 0 -10 38 c-6 20
-36 141 -67 267 -31 127 -60 233 -64 238 -3 4 -37 -117 -74 -268 l-68 -276
-91 3 -90 3 -64 240 c-34 132 -83 315 -107 408 l-44 167 88 0 88 0 31 -127z
m2221 -90 l0 -218 103 103 102 102 91 0 91 0 -109 -107 -108 -108 125 -187
125 -188 -97 0 -98 0 -72 118 c-40 64 -77 124 -82 132 -8 12 -15 10 -41 -15
-30 -28 -30 -30 -30 -132 l0 -103 -80 0 -80 0 0 410 0 410 80 0 80 0 0 -217z
m2789 208 c58 -12 121 -57 150 -110 51 -92 21 -234 -60 -288 l-39 -25 33 -22
c50 -33 75 -95 86 -217 5 -59 14 -116 20 -128 12 -21 10 -21 -78 -21 -104 0
-94 -11 -111 129 -20 175 -38 191 -215 191 l-115 0 0 -160 0 -160 -85 0 -85 0
0 410 0 410 228 0 c125 -1 247 -5 271 -9z m1861 -401 l0 -410 -80 0 -80 0 0
410 0 410 80 0 80 0 0 -410z m-2580 270 l0 -90 60 0 60 0 0 -50 0 -50 -60 0
-60 0 0 -169 c0 -195 2 -201 76 -201 l44 0 0 -59 c0 -58 -1 -60 -31 -66 -41
-9 -146 3 -187 22 -18 9 -38 25 -45 37 -8 14 -14 92 -17 226 l-5 205 -47 3
-48 3 0 49 0 49 48 3 47 3 3 88 3 87 79 0 80 0 0 -90z m3572 3 l3 -88 58 -3
57 -3 0 -49 0 -49 -57 -3 -58 -3 -3 -159 c-3 -191 2 -206 73 -206 l45 0 0 -59
c0 -55 -2 -59 -26 -65 -42 -11 -160 5 -194 25 -53 33 -60 66 -60 279 l0 190
-50 0 -50 0 0 50 0 50 50 0 50 0 0 90 0 90 80 0 79 0 3 -87z m408 -3 l0 -90
60 0 60 0 0 -50 0 -50 -60 0 -60 0 0 -175 c0 -197 -1 -195 79 -195 l41 0 0
-59 c0 -58 -1 -60 -31 -66 -38 -9 -144 3 -186 20 -53 22 -58 41 -63 265 l-5
205 -47 3 -48 3 0 49 0 49 48 3 47 3 3 88 3 87 79 0 80 0 0 -90z m-6957 -98
c126 -56 190 -190 165 -346 -24 -153 -118 -236 -280 -244 -147 -7 -232 37
-289 153 -27 55 -32 76 -32 142 -2 165 76 276 220 313 55 13 165 4 216 -18z
m657 -49 l0 -78 -58 0 c-44 0 -65 -5 -91 -24 -54 -39 -64 -75 -69 -263 l-5
-168 -78 0 -79 0 0 295 0 295 80 0 80 0 0 -52 0 -53 26 39 c29 43 110 86 162
86 l32 0 0 -77z m1166 42 c98 -48 145 -128 152 -256 5 -108 -13 -169 -70 -234
-67 -76 -104 -90 -233 -90 -102 0 -113 2 -157 27 -96 57 -141 145 -142 278 -1
119 37 197 125 261 76 54 230 61 325 14z m2607 7 c56 -25 114 -83 141 -141 17
-37 21 -65 21 -146 0 -89 -3 -106 -27 -151 -28 -54 -77 -102 -131 -131 -21
-11 -63 -18 -128 -21 -82 -4 -102 -1 -147 18 -60 26 -115 82 -146 149 -31 67
-30 216 3 283 42 87 104 133 216 162 39 10 155 -3 198 -22z m1648 0 c93 -42
155 -137 166 -256 l6 -66 -218 0 -217 0 7 -37 c10 -52 21 -71 58 -93 61 -38
184 -16 203 35 5 11 24 15 80 15 l74 0 -24 -49 c-30 -58 -91 -113 -145 -129
-55 -17 -160 -15 -220 5 -68 22 -124 71 -158 141 -24 50 -28 69 -28 147 0 102
18 153 75 219 79 89 229 119 341 68z m1435 13 c59 -17 125 -71 158 -128 25
-43 46 -125 46 -177 l0 -30 -216 0 -217 0 6 -37 c13 -75 60 -113 142 -113 52
0 110 26 121 55 5 11 23 15 75 15 41 0 69 -4 69 -10 0 -25 -43 -91 -80 -122
-49 -43 -98 -58 -182 -58 -89 0 -156 22 -210 70 -113 99 -130 308 -35 431 42
55 73 77 138 100 66 22 120 24 185 4z m-5266 -182 c0 -192 8 -245 38 -275 27
-27 91 -34 130 -14 59 30 66 59 70 274 l4 192 79 0 79 0 0 -295 0 -295 -75 0
-75 0 0 40 c0 47 -5 49 -32 15 -35 -44 -89 -65 -170 -65 -97 0 -143 25 -178
95 -24 48 -25 58 -28 278 l-4 227 81 0 81 0 0 -177z m2622 -25 c4 -217 10
-246 55 -267 33 -15 67 -14 109 4 57 23 64 55 64 275 l0 190 85 0 85 0 0 -295
0 -295 -80 0 -80 0 0 40 0 41 -34 -35 c-46 -45 -92 -59 -180 -54 -61 3 -79 8
-110 31 -64 50 -70 73 -74 335 l-4 232 80 0 81 0 3 -202z m-4067 -760 c10 -46
21 -87 25 -91 4 -5 17 32 30 82 21 88 23 91 50 91 27 0 29 -3 51 -95 13 -52
26 -90 30 -83 4 6 15 49 25 95 17 81 18 83 47 83 23 0 28 -4 25 -17 -3 -10
-20 -73 -38 -141 l-33 -123 -30 3 c-30 3 -32 6 -52 85 -11 45 -23 84 -26 87
-3 4 -11 -18 -18 -47 -28 -125 -29 -128 -63 -125 -31 3 -31 4 -64 128 -19 69
-34 131 -34 138 0 7 12 12 28 12 28 0 29 -3 47 -82z m365 32 c0 -27 2 -50 5
-50 3 0 16 7 29 15 29 20 71 11 91 -18 10 -15 15 -47 15 -99 l0 -78 -30 0 -30
0 0 74 c0 88 -14 109 -55 82 -23 -15 -25 -23 -25 -86 0 -68 -1 -70 -25 -70
l-25 0 0 140 0 140 25 0 c23 0 25 -3 25 -50z m2530 30 c0 -15 -7 -20 -25 -20
-18 0 -25 5 -25 20 0 15 7 20 25 20 18 0 25 -5 25 -20z m450 0 c0 -16 -7 -20
-30 -20 -23 0 -30 4 -30 20 0 16 7 20 30 20 23 0 30 -4 30 -20z m1080 0 c0
-15 -7 -20 -25 -20 -18 0 -25 5 -25 20 0 15 7 20 25 20 18 0 25 -5 25 -20z
m-3740 -65 c34 -18 50 -43 50 -79 0 -25 -2 -26 -70 -26 -69 0 -76 -3 -64 -34
7 -18 64 -22 81 -5 6 6 21 9 34 7 l24 -3 -27 -27 c-21 -22 -37 -28 -68 -28
-77 0 -120 56 -100 130 19 70 78 97 140 65z m220 -9 c0 -18 -7 -25 -30 -30
-36 -7 -50 -36 -50 -107 0 -46 -2 -49 -25 -49 l-25 0 0 100 0 100 25 0 c16 0
25 -6 25 -16 0 -13 5 -12 26 5 35 28 54 27 54 -3z m177 -8 c12 -13 25 -38 29
-55 l7 -33 -77 0 c-42 0 -76 -3 -76 -6 0 -3 5 -14 10 -25 12 -21 59 -26 77 -8
6 6 21 9 33 7 l22 -3 -22 -27 c-17 -22 -30 -28 -60 -28 -74 0 -110 34 -110
101 0 37 26 84 54 98 31 16 87 5 113 -21z m313 17 c34 -18 50 -43 50 -79 0
-25 -2 -26 -70 -26 -69 0 -76 -3 -64 -34 7 -18 64 -22 81 -5 6 6 21 9 34 7
l24 -3 -27 -27 c-31 -32 -81 -37 -127 -13 -62 32 -61 137 2 175 39 24 59 25
97 5z m457 -17 c12 -13 25 -38 29 -55 l7 -33 -77 0 c-42 0 -76 -3 -76 -6 0 -3
5 -14 10 -25 12 -21 59 -26 77 -8 6 6 21 9 33 7 l22 -3 -22 -27 c-17 -22 -30
-28 -61 -28 -43 0 -77 14 -96 39 -16 21 -16 90 1 120 30 54 108 64 153 19z
m249 17 c5 -1 18 -30 29 -64 10 -33 21 -58 25 -56 3 2 15 31 25 65 16 54 21
60 45 60 l28 0 -39 -106 c-59 -159 -62 -164 -116 -164 -26 0 -33 4 -33 20 0
11 6 20 13 20 7 0 21 6 31 13 16 12 14 19 -21 112 -21 55 -39 93 -41 85 -1 -8
-17 -22 -35 -30 -31 -14 -32 -17 -35 -82 -3 -68 -3 -68 -32 -68 l-30 0 0 100
0 100 25 0 c16 0 25 -6 25 -16 0 -13 5 -12 27 5 24 20 57 22 109 6z m435 -11
c10 -9 19 -21 19 -26 0 -12 -44 -10 -57 3 -15 15 -58 7 -58 -10 0 -8 23 -21
54 -31 75 -25 87 -47 50 -94 -17 -22 -28 -26 -70 -26 -41 0 -55 5 -77 28 l-27
27 28 3 c19 2 33 -3 41 -14 9 -12 20 -15 40 -10 43 11 29 38 -28 57 -27 8 -54
22 -59 31 -15 22 0 67 26 78 31 14 95 5 118 -16z m215 10 c86 -41 59 -194 -35
-194 -20 0 -42 5 -49 12 -9 9 -12 2 -12 -35 0 -46 -1 -47 -30 -47 l-30 0 0
135 0 135 24 0 c13 0 26 -5 28 -12 3 -8 11 -7 28 5 30 21 34 21 76 1z m364
-10 c10 -10 16 -41 19 -99 l3 -85 -31 0 -31 0 0 74 c0 88 -14 109 -55 82 -23
-15 -25 -23 -25 -86 0 -68 -1 -70 -25 -70 l-25 0 0 100 0 100 25 0 c14 0 25
-4 25 -9 0 -6 12 -3 28 5 30 16 69 11 92 -12z m397 15 c26 -10 43 -25 43 -41
0 -12 -48 -10 -55 2 -7 12 -52 13 -59 2 -9 -15 9 -30 54 -42 25 -7 51 -17 58
-22 18 -16 15 -55 -8 -78 -38 -38 -160 -19 -160 26 0 19 46 18 54 -1 6 -17 29
-19 56 -5 27 14 15 37 -23 46 -87 18 -113 62 -61 103 30 23 59 26 101 10z
m365 -19 c14 -17 18 -41 18 -100 l0 -77 -80 -1 c-87 -1 -110 10 -110 53 0 31
22 52 62 60 60 12 68 16 68 36 0 15 -7 19 -30 19 -18 0 -33 -6 -36 -15 -8 -19
-54 -20 -54 -2 0 15 26 41 50 50 30 12 94 -1 112 -23z m767 5 c10 -9 16 -44
19 -100 l5 -85 -32 0 -31 0 0 74 c0 79 -12 102 -46 89 -29 -10 -34 -23 -34
-95 0 -66 -1 -68 -25 -68 l-25 0 0 100 0 100 25 0 c14 0 25 -4 25 -9 0 -6 12
-3 28 5 29 16 69 11 91 -11z m-3098 -52 l22 -68 22 65 c19 56 25 65 48 68 l27
3 -35 -98 c-19 -54 -35 -99 -35 -101 0 -2 -14 -2 -32 0 -30 3 -32 6 -64 101
l-33 97 29 0 c26 0 30 -5 51 -67z m1349 -33 l0 -100 -25 0 -25 0 0 100 0 100
25 0 25 0 0 -100z m450 0 l0 -100 -30 0 -30 0 0 100 0 100 30 0 30 0 0 -100z
m759 38 c9 -31 19 -59 22 -62 3 -3 11 23 18 59 13 62 15 65 42 65 25 0 29 -5
39 -42 22 -87 26 -89 46 -20 15 53 21 62 41 62 29 0 29 -8 -5 -110 -27 -80
-30 -85 -57 -85 -27 0 -30 4 -43 58 -8 31 -17 57 -21 57 -4 0 -13 -26 -21 -57
-14 -54 -17 -58 -44 -58 -28 0 -31 4 -58 85 -35 105 -35 112 -1 108 23 -3 29
-10 42 -60z m321 -38 l0 -100 -25 0 -25 0 0 100 0 100 25 0 25 0 0 -100z"/>
<path d="M6356 6362 c-7 -12 26 -102 57 -155 40 -67 94 -100 172 -105 72 -5
109 10 168 67 40 37 69 85 92 151 l13 37 -81 7 c-115 8 -415 8 -421 -2z m314
-77 c71 -68 21 -175 -80 -175 -83 0 -136 82 -99 151 32 62 127 74 179 24z"/>
<path d="M6870 4605 l0 -115 129 0 c124 0 131 1 160 26 37 31 48 80 32 136
-17 57 -51 68 -201 68 l-120 0 0 -115z"/>
<path d="M3320 4523 c-29 -11 -70 -57 -81 -91 -17 -53 -14 -163 6 -206 26 -55
59 -76 117 -76 103 0 149 58 149 186 0 89 -20 138 -70 171 -32 22 -86 29 -121
16z"/>
<path d="M5130 4523 c-75 -30 -113 -136 -90 -249 18 -84 59 -124 129 -124 29
0 66 7 82 16 90 46 93 281 5 339 -28 18 -100 29 -126 18z"/>
<path d="M7731 4512 c-44 -24 -71 -76 -78 -149 -7 -77 11 -139 52 -180 29 -29
39 -33 89 -33 47 0 60 4 89 30 43 38 61 99 55 183 -9 107 -48 155 -131 164
-29 3 -53 -2 -76 -15z"/>
<path d="M9391 4512 c-33 -18 -71 -71 -71 -99 0 -10 33 -13 136 -13 l135 0 -7
23 c-29 96 -110 133 -193 89z"/>
<path d="M10863 4515 c-34 -15 -58 -45 -68 -87 l-7 -28 135 0 136 0 -8 28
c-25 87 -104 124 -188 87z"/>
<path d="M4918 3629 c-35 -20 -21 -39 27 -39 49 0 50 1 35 31 -12 21 -35 24
-62 8z"/>
<path d="M5286 3624 c-26 -25 -19 -34 29 -34 46 0 58 13 33 38 -17 17 -44 15
-62 -4z"/>
<path d="M5628 3629 c-35 -20 -21 -39 27 -39 49 0 50 1 35 31 -12 21 -35 24
-62 8z"/>
<path d="M6056 3624 c-26 -25 -19 -34 29 -34 46 0 58 13 33 38 -17 17 -44 15
-62 -4z"/>
<path d="M6976 3627 c-13 -9 -17 -24 -14 -56 3 -50 22 -67 61 -57 29 7 37 34
25 80 -12 45 -39 57 -72 33z"/>
<path d="M8103 3558 c-37 -10 -46 -20 -37 -42 14 -37 79 -8 72 32 -3 16 -8 17
-35 10z"/>
</g>
</svg>
