<?xml version="1.0" standalone="no"?>
<!DOCTYPE svg PUBLIC "-//W3C//DTD SVG 20010904//EN"
 "http://www.w3.org/TR/2001/REC-SVG-20010904/DTD/svg10.dtd">
<svg version="1.0" xmlns="http://www.w3.org/2000/svg"
 width="1320.000000pt" height="1000.000000pt" viewBox="0 0 1320.000000 1000.000000"
 preserveAspectRatio="xMidYMid meet">

<g transform="translate(0.000000,1000.000000) scale(0.100000,-0.100000)"
fill="#000000" stroke="none">
<path d="M2115 5901 c-86 -38 -147 -216 -125 -367 17 -122 39 -174 96 -224 33
-28 42 -32 78 -27 32 4 49 15 78 47 35 39 68 113 68 152 0 26 29 35 168 53
167 20 185 20 177 -4 -6 -21 44 -165 82 -231 69 -121 147 -195 240 -229 l45
-16 -1 -160 c-2 -222 15 -247 128 -187 99 53 207 84 296 85 67 1 90 -4 143
-28 76 -34 153 -113 196 -200 16 -33 36 -68 44 -77 20 -24 55 -23 77 2 17 19
17 22 -5 75 -29 71 -107 182 -162 230 -24 21 -72 52 -108 69 -61 29 -71 31
-180 31 -99 -1 -126 -4 -193 -28 -42 -15 -82 -27 -87 -27 -6 0 -10 43 -10 105
l0 104 38 7 c176 32 345 205 407 418 16 54 18 57 43 52 15 -3 91 -17 170 -32
130 -24 142 -28 142 -48 0 -28 46 -125 72 -153 12 -12 36 -27 55 -34 72 -23
159 61 184 179 18 85 14 206 -10 282 -80 256 -291 179 -309 -112 -3 -63 -9
-88 -18 -88 -7 0 -45 7 -86 15 -116 25 -303 52 -443 66 -267 26 -736 11 -990
-31 -97 -16 -91 -20 -98 73 -6 99 -30 167 -77 219 -37 41 -85 56 -125 39z
m1330 -349 l60 -7 -3 -33 c-4 -55 -72 -180 -132 -242 -76 -79 -151 -113 -250
-114 -60 -1 -85 4 -123 22 -96 48 -175 156 -223 307 l-22 70 36 7 c44 8 570 0
657 -10z"/>
<path d="M3085 5480 c-85 -18 -135 -75 -135 -152 0 -86 71 -152 165 -152 123
0 204 121 150 224 -29 56 -115 94 -180 80z"/>
<path d="M5452 5208 c3 -7 33 -122 68 -256 l64 -243 55 3 55 3 41 167 c22 92
42 169 45 172 3 3 25 -73 49 -169 l43 -175 54 0 c30 0 54 2 54 5 0 2 29 113
65 245 36 132 65 245 65 250 0 6 -22 10 -49 10 l-50 0 -43 -181 c-28 -121 -45
-175 -50 -162 -4 10 -21 74 -38 143 -55 224 -44 200 -99 200 l-49 0 -42 -170
c-23 -94 -45 -172 -49 -174 -4 -3 -25 73 -46 167 l-40 172 -54 3 c-41 2 -52 0
-49 -10z"/>
<path d="M6860 4965 l0 -255 50 0 50 0 0 63 c0 53 4 67 23 85 l22 21 50 -84
50 -84 58 -1 c44 0 56 3 51 13 -4 6 -39 59 -77 116 l-69 103 68 69 68 69 -56
0 -56 0 -66 -72 -66 -72 0 142 0 142 -50 0 -50 0 0 -255z"/>
<path d="M8400 4965 l0 -255 50 0 50 0 0 100 0 100 80 0 c111 0 116 -6 135
-152 l6 -48 54 0 c54 0 54 0 45 26 -6 14 -10 42 -10 62 0 58 -18 109 -46 131
l-26 20 36 34 c32 31 36 40 36 86 0 69 -22 108 -73 132 -35 15 -66 19 -189 19
l-148 0 0 -255z m291 146 c25 -30 24 -76 -1 -101 -17 -17 -33 -20 -105 -20
l-85 0 0 76 0 76 86 -3 c76 -4 88 -7 105 -28z"/>
<path d="M9770 4965 l0 -255 50 0 50 0 0 255 0 255 -50 0 -50 0 0 -255z"/>
<path d="M8160 5135 c0 -54 0 -55 -30 -55 -27 0 -30 -3 -30 -29 0 -25 4 -30
28 -33 l27 -3 5 -133 c5 -126 6 -135 29 -153 17 -14 39 -19 82 -19 l59 0 0 35
c0 30 -3 35 -24 35 -48 0 -57 22 -54 134 l3 101 38 3 c34 3 37 6 37 33 0 27
-2 29 -40 29 l-40 0 0 55 0 55 -45 0 -45 0 0 -55z"/>
<path d="M10390 5135 c0 -54 0 -55 -30 -55 -27 0 -30 -3 -30 -30 0 -26 3 -30
29 -30 l29 0 4 -135 c4 -162 6 -167 103 -173 l65 -4 0 36 c0 29 -4 36 -19 36
-49 0 -51 6 -51 126 l0 114 35 0 c32 0 35 2 35 30 0 28 -3 30 -35 30 l-35 0 0
55 0 55 -50 0 -50 0 0 -55z"/>
<path d="M10650 5135 l0 -55 -35 0 c-32 0 -35 -2 -35 -29 0 -26 4 -30 33 -33
l32 -3 2 -120 c2 -66 5 -129 8 -141 6 -28 45 -44 105 -44 l50 0 0 35 c0 30 -3
35 -23 35 -41 0 -47 17 -47 132 l0 108 35 0 c32 0 35 2 35 30 0 28 -3 30 -35
30 l-35 0 0 55 0 55 -45 0 -45 0 0 -55z"/>
<path d="M6257 5076 c-85 -23 -128 -84 -128 -181 0 -101 50 -168 142 -186 67
-14 125 -1 172 41 95 83 65 284 -47 319 -59 18 -91 20 -139 7z m116 -84 c57
-50 38 -187 -30 -213 -85 -32 -150 71 -111 177 21 58 94 76 141 36z"/>
<path d="M6753 5079 c-17 -5 -43 -23 -57 -39 -13 -17 -27 -30 -30 -30 -3 0 -6
16 -6 35 0 34 -1 35 -40 35 l-40 0 0 -185 0 -185 45 0 45 0 0 103 c0 84 4 108
20 135 21 34 54 52 96 52 23 0 25 3 22 42 -3 46 -9 50 -55 37z"/>
<path d="M7387 5076 c-86 -23 -127 -82 -127 -181 0 -69 18 -113 59 -148 85
-71 218 -55 284 35 25 34 34 130 18 181 -33 98 -124 142 -234 113z m116 -84
c23 -21 39 -85 31 -127 -14 -75 -68 -108 -129 -79 -100 47 -51 252 55 227 14
-3 33 -13 43 -21z"/>
<path d="M9040 5081 c-124 -24 -183 -151 -128 -273 34 -74 80 -103 163 -103
76 1 129 26 163 78 23 34 27 51 27 106 -1 138 -94 217 -225 192z m69 -72 c40
-14 61 -54 61 -116 0 -90 -60 -143 -127 -111 -36 17 -53 52 -53 110 0 74 18
101 86 128 1 0 15 -5 33 -11z"/>
<path d="M10076 5079 c-84 -20 -137 -90 -137 -183 0 -119 67 -189 182 -189 67
0 113 23 147 74 l24 34 -42 3 c-33 3 -44 -1 -60 -20 -14 -18 -28 -23 -64 -23
-51 0 -80 21 -91 68 l-7 27 136 0 c155 0 148 -5 121 87 -18 59 -64 109 -109
118 -17 4 -38 8 -46 10 -8 1 -32 -1 -54 -6z m71 -69 c27 -10 53 -44 53 -70 0
-6 -38 -10 -86 -10 -84 0 -85 0 -78 23 9 31 32 55 58 60 11 2 21 5 22 6 1 0
15 -4 31 -9z"/>
<path d="M10992 5078 c-61 -13 -117 -71 -130 -134 -24 -113 27 -208 125 -233
83 -21 167 10 206 77 l19 32 -46 0 c-25 0 -46 -4 -46 -10 0 -19 -61 -42 -96
-36 -36 7 -74 47 -74 77 0 18 10 19 136 19 l136 0 -6 30 c-3 17 -9 44 -12 61
-8 43 -68 106 -107 114 -18 4 -39 8 -47 10 -8 1 -34 -2 -58 -7z m106 -94 c41
-46 31 -54 -63 -54 -47 0 -85 4 -85 10 0 24 25 60 49 69 36 14 72 5 99 -25z"/>
<path d="M7710 4935 c0 -168 9 -197 67 -222 48 -20 113 -10 148 22 32 31 35
31 35 0 0 -23 4 -25 45 -25 l45 0 0 185 0 185 -50 0 -50 0 0 -124 c0 -110 -2
-126 -21 -150 -18 -23 -28 -27 -62 -24 -59 4 -67 25 -67 176 l0 122 -45 0 -45
0 0 -145z"/>
<path d="M9340 4952 c0 -139 8 -183 41 -218 42 -45 134 -40 187 8 l22 21 0
-26 c0 -25 3 -27 45 -27 l45 0 0 185 0 185 -45 0 -45 0 0 -112 c0 -146 -15
-182 -77 -186 -65 -5 -73 15 -73 170 l0 128 -50 0 -50 0 0 -128z"/>
<path d="M2832 4635 c-217 -114 -351 -236 -447 -405 -38 -68 -43 -115 -14
-133 35 -22 63 0 114 90 85 148 201 252 400 358 50 27 98 55 108 63 20 17 22
53 5 70 -22 22 -62 12 -166 -43z"/>
</g>
</svg>
