<?xml version="1.0" standalone="no"?>
<!DOCTYPE svg PUBLIC "-//W3C//DTD SVG 20010904//EN"
 "http://www.w3.org/TR/2001/REC-SVG-20010904/DTD/svg10.dtd">
<svg version="1.0" xmlns="http://www.w3.org/2000/svg"
 width="1320.000000pt" height="1000.000000pt" viewBox="0 0 1320.000000 1000.000000"
 preserveAspectRatio="xMidYMid meet">

<g transform="translate(0.000000,1000.000000) scale(0.100000,-0.100000)"
fill="#000000" stroke="none">
<path d="M0 5000 l0 -5000 6600 0 6600 0 0 5000 0 5000 -6600 0 -6600 0 0
-5000z m3777 3459 c79 -38 173 -139 230 -245 92 -176 140 -374 150 -621 6
-138 8 -153 24 -153 10 0 78 9 151 20 423 62 812 102 1221 125 320 18 782 28
747 16 l-25 -9 25 -2 25 -2 -25 -8 -25 -8 25 -2 25 -2 -25 -8 c-24 -8 -24 -8
-2 -9 12 -1 22 -7 22 -16 0 -9 -10 -15 -22 -16 -22 -1 -22 -1 2 -9 l25 -8 -25
-2 -25 -2 25 -8 25 -8 -25 -2 -25 -2 25 -7 c14 -4 -99 -11 -250 -15 -236 -6
-581 -23 -587 -29 -1 -2 13 -63 32 -137 56 -228 152 -451 271 -632 59 -89 228
-260 309 -313 80 -52 198 -102 282 -120 135 -29 368 -15 492 29 24 9 45 16 47
16 2 0 4 -32 4 -71 0 -44 -4 -68 -10 -64 -5 3 -10 1 -10 -4 0 -16 -144 -85
-220 -106 -36 -10 -90 -21 -120 -25 l-55 -7 51 -2 c64 -1 180 28 269 68 49 22
71 28 76 20 5 -8 9 -6 12 7 2 10 5 -21 6 -70 0 -49 -2 -87 -5 -83 -4 3 -12 0
-20 -8 -7 -7 -46 -18 -86 -25 -40 -6 -81 -14 -90 -16 -17 -5 -18 -29 -18 -325
l0 -319 50 20 c27 11 66 26 86 35 20 8 47 17 60 19 l24 5 0 -175 c0 -103 -4
-173 -9 -170 -5 4 -11 2 -13 -2 -1 -5 -97 -54 -212 -110 -140 -69 -220 -102
-243 -102 -60 0 -111 38 -149 110 -18 32 -19 68 -22 482 -2 249 1 470 6 498 7
37 6 52 -2 55 -360 100 -609 301 -832 672 -66 109 -125 241 -224 503 -61 161
-62 167 -58 244 l5 79 -81 -7 c-114 -8 -452 -51 -708 -88 l-217 -32 -11 -55
c-18 -95 -80 -283 -117 -352 -68 -131 -177 -240 -274 -274 -48 -17 -138 -19
-191 -5 -105 30 -227 156 -303 315 -168 351 -168 908 0 1260 91 190 201 293
350 329 41 10 122 -6 182 -35z m2718 -1724 l0 -475 -26 0 c-37 0 -126 28 -189
60 -196 99 -300 323 -246 526 44 165 187 301 366 348 106 28 95 83 95 -459z
m-1360 -2629 l0 -203 -112 -112 c-192 -191 -318 -364 -450 -618 -56 -108 -84
-150 -107 -164 -114 -70 -255 9 -256 143 0 87 167 385 348 618 95 122 297 327
437 441 66 54 125 99 130 99 7 0 10 -73 10 -204z"/>
<path d="M6288 7533 c7 -3 16 -2 19 1 4 3 -2 6 -13 5 -11 0 -14 -3 -6 -6z"/>
<path d="M6881 6244 c0 -11 3 -14 6 -6 3 7 2 16 -1 19 -3 4 -6 -2 -5 -13z"/>
<path d="M6881 6204 c0 -11 3 -14 6 -6 3 7 2 16 -1 19 -3 4 -6 -2 -5 -13z"/>
<path d="M6881 6164 c0 -11 3 -14 6 -6 3 7 2 16 -1 19 -3 4 -6 -2 -5 -13z"/>
<path d="M6881 6044 c0 -11 3 -14 6 -6 3 7 2 16 -1 19 -3 4 -6 -2 -5 -13z"/>
<path d="M6881 6004 c0 -11 3 -14 6 -6 3 7 2 16 -1 19 -3 4 -6 -2 -5 -13z"/>
<path d="M6881 5964 c0 -11 3 -14 6 -6 3 7 2 16 -1 19 -3 4 -6 -2 -5 -13z"/>
<path d="M6881 5284 c0 -11 3 -14 6 -6 3 7 2 16 -1 19 -3 4 -6 -2 -5 -13z"/>
<path d="M6881 5244 c0 -11 3 -14 6 -6 3 7 2 16 -1 19 -3 4 -6 -2 -5 -13z"/>
<path d="M6881 5204 c0 -11 3 -14 6 -6 3 7 2 16 -1 19 -3 4 -6 -2 -5 -13z"/>
<path d="M6881 5164 c0 -11 3 -14 6 -6 3 7 2 16 -1 19 -3 4 -6 -2 -5 -13z"/>
<path d="M6881 5124 c0 -11 3 -14 6 -6 3 7 2 16 -1 19 -3 4 -6 -2 -5 -13z"/>
<path d="M6881 5084 c0 -11 3 -14 6 -6 3 7 2 16 -1 19 -3 4 -6 -2 -5 -13z"/>
<path d="M6881 5044 c0 -11 3 -14 6 -6 3 7 2 16 -1 19 -3 4 -6 -2 -5 -13z"/>
<path d="M6881 5004 c0 -11 3 -14 6 -6 3 7 2 16 -1 19 -3 4 -6 -2 -5 -13z"/>
</g>
</svg>
