<?xml version="1.0" standalone="no"?>
<!DOCTYPE svg PUBLIC "-//W3C//DTD SVG 20010904//EN"
 "http://www.w3.org/TR/2001/REC-SVG-20010904/DTD/svg10.dtd">
<svg version="1.0" xmlns="http://www.w3.org/2000/svg"
 width="1320.000000pt" height="1000.000000pt" viewBox="0 0 1320.000000 1000.000000"
 preserveAspectRatio="xMidYMid meet">

<g transform="translate(0.000000,1000.000000) scale(0.100000,-0.100000)"
fill="#000000" stroke="none">
<path d="M0 5000 l0 -5000 6600 0 6600 0 0 5000 0 5000 -6600 0 -6600 0 0
-5000z m2240 862 c47 -52 71 -120 77 -219 4 -61 9 -83 19 -83 8 0 58 6 112 14
133 20 323 35 467 38 114 3 120 2 120 -17 0 -19 -9 -20 -133 -26 -73 -3 -136
-9 -139 -13 -12 -11 15 -97 57 -183 86 -175 205 -241 377 -211 35 7 41 5 39
-8 -1 -9 -13 -25 -27 -35 l-24 -20 26 6 c22 5 25 3 25 -18 0 -21 -6 -26 -38
-31 l-38 -6 0 -106 c0 -117 -4 -110 59 -93 11 3 15 -8 16 -44 1 -26 -1 -51 -4
-55 -14 -17 -142 -73 -163 -70 -41 6 -48 40 -47 213 l1 160 -45 16 c-91 33
-152 88 -230 211 -47 74 -100 212 -94 244 5 30 -2 30 -175 9 -139 -18 -168
-27 -168 -53 0 -39 -33 -113 -68 -152 -100 -113 -224 -21 -254 187 -39 268
123 489 252 345z m860 -532 c0 -145 -1 -150 -21 -150 -49 0 -115 57 -130 114
-8 31 -7 48 6 81 17 46 34 65 80 89 64 34 65 32 65 -134z m-507 -994 c-32 -35
-80 -101 -107 -147 -27 -46 -54 -87 -60 -91 -22 -16 -56 -7 -72 17 -15 24 -15
28 16 87 47 91 133 201 209 265 l66 56 3 -62 3 -62 -58 -63z"/>
</g>
</svg>
