<?xml version="1.0" standalone="no"?>
<!DOCTYPE svg PUBLIC "-//W3C//DTD SVG 20010904//EN"
 "http://www.w3.org/TR/2001/REC-SVG-20010904/DTD/svg10.dtd">
<svg version="1.0" xmlns="http://www.w3.org/2000/svg"
 width="1320.000000pt" height="1000.000000pt" viewBox="0 0 1320.000000 1000.000000"
 preserveAspectRatio="xMidYMid meet">

<g transform="translate(0.000000,1000.000000) scale(0.100000,-0.100000)"
fill="#000000" stroke="none">
<path d="M3798 8485 c-317 -65 -513 -706 -379 -1237 63 -251 162 -409 308
-495 41 -24 59 -28 123 -28 127 0 224 62 314 203 55 86 111 226 137 344 11 51
21 94 23 95 10 10 675 95 902 116 l30 3 -4 -76 c-4 -73 -2 -79 66 -255 38 -99
83 -214 101 -256 97 -232 319 -515 500 -638 82 -56 225 -124 302 -145 l64 -18
-3 -435 c-3 -466 1 -521 44 -572 33 -39 91 -62 135 -52 19 5 86 35 150 68 384
198 716 283 987 253 298 -33 525 -183 720 -475 37 -56 83 -134 102 -175 78
-164 106 -215 131 -233 100 -72 239 -1 241 122 0 40 -107 268 -192 406 -269
439 -649 668 -1105 666 -246 -1 -497 -55 -746 -161 l-66 -28 -7 67 c-8 85 -8
223 0 393 l7 135 71 11 c344 54 695 303 929 657 119 181 250 489 264 623 3 28
9 52 12 52 54 -1 563 -94 883 -162 43 -10 47 -13 53 -47 4 -20 20 -79 37 -131
102 -319 288 -477 495 -421 66 18 152 88 211 174 256 370 246 1058 -21 1412
-158 210 -395 207 -553 -8 -130 -175 -196 -405 -198 -689 -1 -107 -4 -148 -13
-148 -6 0 -40 7 -75 15 -273 62 -839 154 -1168 189 -867 93 -1755 91 -2615 -5
-174 -19 -588 -74 -631 -84 -20 -4 -21 0 -27 133 -8 169 -29 297 -71 423 -62
186 -173 338 -286 391 -70 33 -111 38 -182 23z m3167 -966 c272 -15 682 -53
693 -63 1 -2 -17 -64 -41 -137 -80 -243 -197 -445 -350 -606 -188 -196 -381
-301 -618 -333 -200 -28 -417 30 -579 155 -79 61 -190 180 -251 271 -106 158
-214 416 -254 608 -9 44 -18 83 -20 87 -12 18 582 39 965 33 151 -3 356 -9
455 -15z"/>
<path d="M6475 7304 c-123 -19 -254 -95 -321 -186 -133 -182 -118 -395 41
-553 276 -274 756 -136 825 237 29 156 -65 345 -213 433 -91 53 -237 83 -332
69z"/>
<path d="M6030 5077 c-66 -27 -290 -144 -450 -235 -388 -220 -673 -463 -901
-764 -154 -204 -289 -456 -289 -537 0 -93 81 -161 175 -146 61 9 90 35 132
123 172 359 438 667 773 892 148 100 263 166 511 296 164 86 243 133 255 152
10 15 20 50 22 79 6 67 -23 117 -82 144 -53 24 -79 23 -146 -4z"/>
<path d="M5654 2333 c3 -10 53 -201 112 -425 l107 -408 92 0 91 0 68 283 c38
155 72 286 76 290 4 5 40 -123 80 -282 l72 -291 89 0 88 0 11 38 c6 20 57 210
114 422 l103 385 -85 3 c-46 2 -86 1 -88 -1 -2 -1 -33 -131 -70 -287 -37 -157
-70 -288 -73 -292 -4 -4 -40 125 -80 287 l-73 295 -84 0 -83 0 -11 -37 c-5
-21 -37 -146 -70 -278 -66 -261 -69 -270 -74 -264 -4 4 -136 561 -136 573 0 3
-41 6 -91 6 -81 0 -90 -2 -85 -17z"/>
<path d="M6850 1925 l0 -425 90 0 90 0 0 171 0 171 123 -3 c182 -6 199 -21
223 -204 8 -66 17 -123 20 -127 3 -4 44 -8 91 -8 77 0 84 2 78 18 -4 9 -13 73
-20 141 -16 140 -34 184 -88 220 l-36 24 37 24 c63 41 85 83 89 171 4 66 1 83
-19 122 -29 57 -93 105 -158 119 -29 6 -154 11 -285 11 l-235 0 0 -425z m454
271 c48 -20 66 -51 66 -114 0 -100 -56 -127 -250 -120 l-85 3 -3 123 -3 122
121 0 c81 0 132 -5 154 -14z"/>
</g>
</svg>
