<?xml version="1.0" standalone="no"?>
<!DOCTYPE svg PUBLIC "-//W3C//DTD SVG 20010904//EN"
 "http://www.w3.org/TR/2001/REC-SVG-20010904/DTD/svg10.dtd">
<svg version="1.0" xmlns="http://www.w3.org/2000/svg"
 width="1320.000000pt" height="1000.000000pt" viewBox="0 0 1320.000000 1000.000000"
 preserveAspectRatio="xMidYMid meet">

<g transform="translate(0.000000,1000.000000) scale(0.100000,-0.100000)"
fill="#000000" stroke="none">
<path d="M7202 6545 c-36 -40 -52 -90 -52 -159 l0 -49 -32 6 c-18 3 -73 13
-123 21 -184 32 -455 48 -455 27 0 -9 48 -15 228 -27 50 -3 92 -7 92 -9 0 -1
-7 -22 -15 -46 -25 -71 -74 -137 -126 -171 -43 -27 -49 -36 -49 -65 0 -31 2
-34 23 -28 40 13 86 46 128 93 46 51 99 154 99 190 0 18 4 21 23 18 12 -3 63
-12 114 -22 l92 -16 16 -49 c17 -50 63 -99 94 -99 55 0 102 83 109 190 5 95
-10 154 -53 197 -43 43 -74 43 -113 -2z"/>
<path d="M6580 6215 c0 -117 2 -119 66 -89 41 20 56 44 56 91 0 49 -32 82 -94
97 l-28 6 0 -105z"/>
<path d="M6775 5923 c-16 -2 -47 -9 -67 -14 -35 -9 -38 -13 -38 -44 0 -19 2
-35 5 -35 2 0 30 7 62 15 63 17 139 12 184 -11 37 -18 94 -85 124 -144 26 -52
51 -64 75 -36 9 12 4 29 -26 86 -69 133 -186 200 -319 183z"/>
<path d="M6445 5774 c-16 -9 -60 -34 -97 -55 -68 -40 -68 -40 -68 -84 l0 -45
48 34 c26 18 80 50 120 70 66 33 73 39 70 64 -4 33 -30 38 -73 16z"/>
<path d="M2026 4693 c24 -93 73 -276 107 -408 l64 -240 90 -3 91 -3 68 276
c37 152 70 272 74 268 4 -4 33 -111 64 -238 31 -126 61 -247 67 -267 l10 -38
87 0 88 0 107 399 c59 219 107 404 107 410 0 7 -29 11 -84 11 l-84 0 -12 -52
c-56 -240 -120 -501 -123 -505 -3 -2 -36 121 -74 274 l-69 278 -85 0 -84 0
-69 -273 c-38 -150 -73 -269 -77 -265 -4 5 -21 69 -37 143 -17 74 -45 195 -63
268 l-31 132 -88 0 -88 0 44 -167z"/>
<path d="M4250 4450 l0 -410 80 0 80 0 0 103 c0 100 1 104 28 130 15 15 31 27
34 27 3 0 41 -58 84 -130 l79 -129 98 -1 97 0 -125 187 -125 188 107 107 108
108 -91 0 -90 0 -102 -104 -102 -103 0 218 0 219 -80 0 -80 0 0 -410z"/>
<path d="M6700 4451 l0 -411 85 0 85 0 0 160 0 160 124 0 c177 0 185 -8 211
-204 8 -61 15 -112 15 -113 0 -2 39 -3 86 -3 78 0 85 2 79 18 -4 9 -13 72 -20
139 -16 137 -31 175 -81 205 -32 19 -45 38 -25 38 19 0 73 54 92 93 17 32 20
54 17 112 -4 94 -36 143 -117 182 -56 28 -57 28 -303 31 l-248 4 0 -411z m451
254 c16 -9 34 -27 39 -41 23 -59 3 -141 -39 -164 -11 -5 -78 -10 -150 -10
l-131 0 0 115 0 115 125 0 c94 0 134 -4 156 -15z"/>
<path d="M8900 4450 l0 -410 75 0 75 0 0 410 0 410 -75 0 -75 0 0 -410z"/>
<path d="M6320 4720 l0 -90 -50 0 -50 0 0 -50 0 -50 50 0 50 0 0 -197 c0 -213
4 -230 53 -267 23 -17 46 -22 128 -24 l99 -4 0 61 0 61 -41 0 c-80 0 -79 -2
-79 195 l0 175 60 0 60 0 0 50 0 50 -60 0 -60 0 0 90 0 90 -80 0 -80 0 0 -90z"/>
<path d="M3293 4640 c-145 -31 -228 -145 -226 -313 0 -66 5 -87 33 -143 55
-113 143 -159 287 -152 104 5 149 25 210 90 57 63 76 128 71 237 -5 91 -22
139 -73 199 -56 66 -196 105 -302 82z m148 -133 c50 -33 72 -86 72 -171 0
-126 -48 -186 -150 -186 -41 0 -58 5 -82 25 -90 76 -68 304 33 345 39 16 92
11 127 -13z"/>
<path d="M4078 4640 c-46 -14 -95 -49 -117 -83 l-21 -32 0 53 0 52 -75 0 -75
0 0 -295 0 -295 74 0 74 0 4 168 c3 141 7 173 23 206 29 57 64 79 135 84 l61
4 -3 72 c-3 68 -4 71 -28 73 -14 1 -37 -2 -52 -7z"/>
<path d="M5109 4640 c-87 -15 -163 -71 -203 -148 -23 -45 -38 -140 -31 -195
15 -113 67 -192 156 -236 52 -26 74 -31 134 -31 108 0 168 22 229 83 68 68 90
135 84 247 -6 103 -41 178 -106 225 -71 51 -170 72 -263 55z m142 -133 c50
-33 71 -83 71 -171 -1 -121 -39 -174 -137 -190 -52 -9 -101 22 -130 79 -29 58
-28 175 3 233 38 71 126 94 193 49z"/>
<path d="M7740 4640 c-181 -26 -285 -198 -236 -390 23 -90 68 -148 147 -188
61 -33 68 -34 154 -30 134 6 211 52 262 156 25 50 28 68 28 147 -1 72 -5 101
-24 142 -54 121 -184 185 -331 163z m131 -133 c50 -33 69 -79 69 -164 0 -126
-41 -187 -132 -199 -55 -7 -105 18 -132 65 -30 52 -34 174 -8 234 37 83 130
113 203 64z"/>
<path d="M9415 4639 c-97 -12 -184 -79 -226 -174 -32 -71 -31 -189 0 -262 26
-59 93 -126 149 -151 55 -24 205 -23 255 2 28 14 35 21 25 27 -10 7 -10 9 2 9
13 0 13 2 1 9 -11 7 -9 10 10 14 19 3 16 5 -11 7 -33 2 -33 3 -10 10 14 4 18
9 10 9 -13 1 -13 2 0 11 13 9 13 10 0 10 -13 0 -13 1 0 10 13 9 13 10 0 11 -8
0 -4 5 10 9 l25 8 -27 1 c-15 1 -43 -10 -62 -23 -107 -72 -246 -16 -246 100
l0 24 133 1 c72 0 140 2 150 4 24 4 35 15 16 15 -11 0 -11 2 1 10 13 9 13 10
0 11 -8 0 -4 5 10 9 23 7 23 8 -10 10 -33 2 -33 3 -10 10 14 4 18 9 10 9 -13
1 -13 2 0 11 13 9 13 10 0 10 -13 0 -13 1 0 10 13 9 13 10 0 11 -8 0 -4 5 10
9 23 7 23 8 -10 10 -33 2 -33 3 -10 10 14 4 18 9 10 9 -13 1 -13 2 0 11 13 9
13 10 0 10 -13 0 -13 1 0 10 13 9 13 10 0 11 -8 0 -4 5 10 9 23 7 23 8 -10 10
-33 2 -33 3 -10 10 14 4 18 9 10 9 -13 1 -13 2 0 11 13 9 13 10 0 10 -13 0
-13 1 0 10 11 7 11 10 2 10 -7 0 -11 4 -8 8 8 14 -51 43 -102 50 -26 4 -70 5
-97 1z m131 -143 c19 -19 34 -41 34 -50 0 -9 4 -16 8 -16 5 0 9 -7 9 -15 0
-13 -22 -15 -139 -15 -152 0 -154 1 -123 60 26 49 61 70 122 70 49 0 59 -4 89
-34z"/>
<path d="M5592 4402 c3 -217 5 -229 28 -277 19 -38 35 -55 70 -72 87 -45 234
-22 277 43 22 35 33 30 33 -16 l0 -40 75 0 75 0 0 295 0 295 -80 0 -80 0 0
-171 c0 -186 -10 -246 -45 -279 -28 -27 -95 -37 -134 -21 -49 21 -55 47 -59
269 l-3 202 -81 0 -80 0 4 -228z"/>
<path d="M8212 4403 c3 -220 4 -230 28 -278 33 -66 87 -95 177 -95 75 0 117
16 157 59 17 17 33 31 38 31 4 0 8 -18 8 -40 l0 -40 70 0 70 0 0 295 0 295
-75 0 -75 0 0 -167 c0 -180 -8 -232 -38 -272 -24 -33 -79 -48 -129 -35 -65 16
-73 45 -73 277 l0 197 -81 0 -81 0 4 -227z"/>
<path d="M9643 4565 c0 -8 4 -12 9 -9 5 3 6 10 3 15 -9 13 -12 11 -12 -6z"/>
<path d="M9680 4431 c0 -7 -3 -10 -8 -7 -4 2 -8 -15 -8 -39 0 -24 4 -41 8 -39
5 3 8 -1 8 -8 0 -9 3 -9 10 2 8 12 10 12 10 1 0 -8 3 -11 6 -8 4 4 2 13 -4 20
-7 8 -8 17 -4 21 4 4 3 7 -3 6 -21 -5 -29 1 -15 10 11 7 11 10 2 10 -7 0 -11
4 -7 10 3 5 13 7 23 4 10 -4 13 -2 7 3 -5 4 -13 12 -17 17 -5 5 -8 4 -8 -3z"/>
<path d="M9608 4213 c7 -3 16 -2 19 1 4 3 -2 6 -13 5 -11 0 -14 -3 -6 -6z"/>
<path d="M9686 4157 c3 -10 9 -15 12 -12 3 3 0 11 -7 18 -10 9 -11 8 -5 -6z"/>
<path d="M4230 3738 c0 -7 15 -69 34 -138 33 -124 33 -125 64 -128 34 -3 35 0
63 125 7 29 15 51 18 47 3 -3 15 -42 26 -87 20 -79 22 -82 52 -85 l30 -3 33
123 c18 68 35 131 38 141 3 13 -2 17 -25 17 -29 0 -30 -2 -47 -83 -10 -46 -21
-89 -25 -95 -4 -7 -17 31 -30 83 -22 92 -24 95 -51 95 -27 0 -29 -3 -50 -91
-13 -50 -26 -87 -30 -82 -4 4 -15 45 -25 91 -18 79 -19 82 -47 82 -16 0 -28
-5 -28 -12z"/>
<path d="M4620 3610 l0 -140 25 0 c24 0 25 2 25 70 0 63 2 71 25 86 41 27 55
6 55 -82 l0 -74 30 0 30 0 0 78 c0 52 -5 84 -15 99 -20 29 -62 38 -91 18 -13
-8 -26 -15 -29 -15 -3 0 -5 23 -5 50 0 47 -2 50 -25 50 l-25 0 0 -140z"/>
<path d="M7150 3730 c0 -15 7 -20 25 -20 18 0 25 5 25 20 0 15 -7 20 -25 20
-18 0 -25 -5 -25 -20z"/>
<path d="M7600 3730 c0 -13 7 -20 20 -20 13 0 20 7 20 20 0 13 -7 20 -20 20
-13 0 -20 -7 -20 -20z"/>
<path d="M4910 3673 c-72 -27 -88 -146 -25 -187 40 -26 101 -21 133 12 l27 27
-24 3 c-13 2 -28 -1 -34 -7 -17 -17 -74 -13 -81 5 -12 31 -5 34 64 34 68 0 70
1 70 26 0 63 -69 109 -130 87z m70 -52 c15 -30 14 -31 -35 -31 -48 0 -62 19
-27 39 27 16 50 13 62 -8z"/>
<path d="M5156 3659 c-21 -17 -26 -18 -26 -5 0 10 -9 16 -25 16 l-25 0 0 -100
0 -100 25 0 c23 0 25 3 25 49 0 71 14 100 50 107 23 5 30 12 30 30 0 30 -19
31 -54 3z"/>
<path d="M5274 3669 c-28 -14 -54 -61 -54 -98 0 -67 36 -101 110 -101 30 0 43
6 60 28 l22 27 -22 3 c-12 2 -27 -1 -33 -7 -18 -18 -65 -13 -77 8 -5 11 -10
22 -10 25 0 3 34 6 76 6 l77 0 -7 33 c-13 62 -88 103 -142 76z m74 -41 c25
-25 13 -38 -33 -38 -48 0 -55 9 -29 34 18 19 45 21 62 4z"/>
<path d="M5603 3660 c-63 -38 -64 -143 -2 -175 46 -24 96 -19 127 13 l27 27
-24 3 c-13 2 -28 -1 -34 -7 -17 -17 -74 -13 -81 5 -12 31 -5 34 64 34 63 0 70
2 70 20 0 33 -23 71 -51 86 -37 19 -58 18 -96 -6z m85 -32 c25 -25 13 -38 -33
-38 -33 0 -45 4 -45 15 0 29 56 45 78 23z"/>
<path d="M6068 3672 c-40 -5 -78 -55 -78 -104 0 -88 107 -133 168 -70 27 27
27 27 5 30 -13 2 -33 -4 -45 -12 -28 -20 -42 -20 -62 0 -34 33 -20 44 54 44
70 0 70 0 70 28 0 54 -50 92 -112 84z m60 -59 c14 -23 14 -23 -37 -23 -35 0
-51 4 -51 13 0 41 63 47 88 10z"/>
<path d="M6307 3661 c-29 -15 -37 -16 -37 -5 0 8 -9 14 -20 14 -19 0 -20 -7
-20 -100 0 -93 1 -100 20 -100 17 0 20 7 20 45 0 67 23 115 54 115 21 0 26 5
26 25 0 30 3 29 -43 6z"/>
<path d="M6749 3672 c-41 -5 -65 -36 -53 -69 7 -20 20 -30 53 -40 57 -16 75
-31 60 -49 -15 -18 -53 -18 -69 1 -16 19 -50 20 -50 1 0 -40 103 -62 147 -31
50 35 28 88 -43 106 -42 11 -65 31 -51 46 11 10 61 6 65 -6 2 -6 15 -11 29
-11 24 0 25 1 11 22 -16 24 -55 35 -99 30z"/>
<path d="M7350 3672 c-8 -3 -23 -11 -32 -20 -16 -14 -18 -13 -18 1 0 11 -8 17
-25 17 l-25 0 0 -100 0 -100 25 0 c24 0 25 2 25 68 0 81 14 108 52 99 29 -8
38 -37 38 -118 0 -42 3 -49 20 -49 18 0 20 7 20 83 0 52 -5 89 -12 99 -15 18
-46 27 -68 20z"/>
<path d="M7750 3672 c-31 -5 -60 -30 -60 -51 0 -29 17 -43 71 -61 40 -13 54
-22 54 -36 0 -25 -56 -32 -75 -10 -16 20 -50 21 -50 2 0 -48 114 -63 155 -21
44 43 25 77 -51 96 -52 13 -64 27 -40 44 18 13 56 9 56 -6 0 -5 11 -9 25 -9
29 0 32 11 8 32 -20 17 -56 25 -93 20z"/>
<path d="M8077 3670 c-35 -11 -57 -28 -57 -46 0 -19 40 -18 55 2 6 9 22 18 36
19 13 1 28 3 33 4 10 1 -24 31 -34 30 -3 0 -18 -5 -33 -9z"/>
<path d="M5780 3663 c0 -5 14 -50 32 -100 30 -86 34 -93 59 -93 26 0 29 6 58
93 17 50 31 96 31 100 0 5 -10 7 -22 5 -18 -2 -26 -16 -43 -73 -12 -38 -23
-65 -26 -60 -3 6 -14 38 -24 73 -16 53 -21 62 -42 62 -12 0 -23 -3 -23 -7z"/>
<path d="M6360 3666 c0 -2 16 -46 35 -97 38 -99 38 -129 -1 -129 -17 0 -24 -5
-24 -20 0 -15 7 -20 29 -20 47 0 68 28 115 153 l44 117 -28 0 c-26 0 -29 -5
-45 -65 -10 -36 -21 -68 -25 -70 -3 -2 -16 27 -29 66 -19 60 -25 69 -47 69
-13 0 -24 -2 -24 -4z"/>
<path d="M6910 3535 c0 -128 1 -135 20 -135 17 0 20 7 20 45 0 45 13 58 37 34
19 -19 75 -6 96 23 26 35 26 101 0 136 -23 31 -84 42 -110 20 -13 -10 -17 -10
-20 0 -3 6 -13 12 -24 12 -18 0 -19 -9 -19 -135z m134 83 c22 -31 20 -74 -5
-99 -20 -20 -51 -19 -74 2 -14 14 -12 84 4 103 19 23 57 20 75 -6z"/>
<path d="M7150 3570 l0 -100 25 0 25 0 0 100 0 100 -25 0 -25 0 0 -100z"/>
<path d="M7600 3570 c0 -93 1 -100 20 -100 19 0 20 7 20 100 0 93 -1 100 -20
100 -19 0 -20 -7 -20 -100z"/>
<path d="M8081 3585 c-56 -14 -71 -26 -71 -61 0 -30 31 -54 71 -54 34 1 88 29
58 31 -8 0 -27 2 -44 2 -23 2 -31 7 -33 24 -3 19 4 24 43 34 28 7 42 15 35 19
-9 6 -9 9 1 13 23 9 -3 5 -60 -8z"/>
</g>
</svg>
